HIERARCHY
ROOT Hips
{
	OFFSET -278.121490 93.318451 465.951996
	CHANNELS 6 Xposition Yposition Zposition Zrotation Yrotation Xrotation 
	JOINT LeftUpLeg
	{
		OFFSET 0.103457 1.857822 10.548516
		CHANNELS 3 Zrotation Yrotation Xrotation
		JOINT LeftLeg
		{
			OFFSET 43.500008 -0.000031 0.000015
			CHANNELS 3 Zrotation Yrotation Xrotation
			JOINT LeftFoot
			{
				OFFSET 42.372192 0.000027 -0.000009
				CHANNELS 3 Zrotation Yrotation Xrotation
				JOINT LeftToe
				{
					OFFSET 17.299999 0.000000 -0.000004
					CHANNELS 3 Zrotation Yrotation Xrotation
					End Site
					{
						OFFSET 0.000000 0.000000 0.000000
					}
				}
			}
		}
	}
	JOINT RightUpLeg
	{
		OFFSET 0.103460 1.857822 -10.548513
		CHANNELS 3 Zrotation Yrotation Xrotation
		JOINT RightLeg
		{
			OFFSET 43.500038 -0.000015 -0.000002
			CHANNELS 3 Zrotation Yrotation Xrotation
			JOINT RightFoot
			{
				OFFSET 42.372269 -0.000019 0.000014
				CHANNELS 3 Zrotation Yrotation Xrotation
				JOINT RightToe
				{
					OFFSET 17.300005 -0.000001 0.000011
					CHANNELS 3 Zrotation Yrotation Xrotation
					End Site
					{
						OFFSET 0.000000 0.000000 0.000000
					}
				}
			}
		}
	}
	JOINT Spine
	{
		OFFSET 6.901966 -2.603743 -0.000003
		CHANNELS 3 Zrotation Yrotation Xrotation
		JOINT Spine1
		{
			OFFSET 12.588103 0.000012 0.000008
			CHANNELS 3 Zrotation Yrotation Xrotation
			JOINT Spine2
			{
				OFFSET 12.343199 0.000004 0.000007
				CHANNELS 3 Zrotation Yrotation Xrotation
				JOINT Neck
				{
					OFFSET 25.832901 -0.000008 -0.000001
					CHANNELS 3 Zrotation Yrotation Xrotation
					JOINT Head
					{
						OFFSET 11.766611 0.000029 -0.000004
						CHANNELS 3 Zrotation Yrotation Xrotation
						End Site
						{
							OFFSET 0.000000 0.000000 0.000000
						}
					}
				}
				JOINT LeftShoulder
				{
					OFFSET 19.745907 -1.480370 6.000077
					CHANNELS 3 Zrotation Yrotation Xrotation
					JOINT LeftArm
					{
						OFFSET 11.284128 -0.000004 -0.000015
						CHANNELS 3 Zrotation Yrotation Xrotation
						JOINT LeftForeArm
						{
							OFFSET 33.000065 0.000010 0.000016
							CHANNELS 3 Zrotation Yrotation Xrotation
							JOINT LeftHand
							{
								OFFSET 25.200001 0.000010 0.000006
								CHANNELS 3 Zrotation Yrotation Xrotation
								End Site
								{
									OFFSET 0.000000 0.000000 0.000000
								}
							}
						}
					}
				}
				JOINT RightShoulder
				{
					OFFSET 19.746094 -1.480385 -6.000086
					CHANNELS 3 Zrotation Yrotation Xrotation
					JOINT RightArm
					{
						OFFSET 11.284142 -0.000011 -0.000013
						CHANNELS 3 Zrotation Yrotation Xrotation
						JOINT RightForeArm
						{
							OFFSET 33.000092 0.000004 0.000015
							CHANNELS 3 Zrotation Yrotation Xrotation
							JOINT RightHand
							{
								OFFSET 25.199759 0.000141 0.000412
								CHANNELS 3 Zrotation Yrotation Xrotation
								End Site
								{
									OFFSET 0.000000 0.000000 0.000000
								}
							}
						}
					}
				}
			}
		}
	}
}
MOTION
Frames: 5
Frame Time: 0.033333
361.153687 79.364822 -423.766998 87.735515 29.492040 -95.071193 106.028633 -15.572792 175.945427 -57.805906 -1.600182 6.542890 87.188061 -5.415472 -4.916241 21.454551 0.003084 -0.000002 104.933487 8.816794 -176.571168 -59.509027 -3.362218 -4.842517 87.539529 5.015594 8.156943 21.454553 -0.003106 -0.000016 20.547472 -1.006083 -0.605091 31.097749 -1.813735 -1.457276 30.779592 -1.822364 -1.446272 8.008731 -1.391802 -0.238263 4.479624 -3.464475 0.203798 48.844281 -78.698710 129.895377 -72.784559 48.071732 -55.882678 -107.273688 -0.305164 3.091539 -17.002789 -32.923653 31.444524 79.827488 81.150447 -99.193027 -73.470323 -42.205668 55.289651 -108.364892 0.574483 -3.205153 -8.587396 28.424469 -35.155663 
361.138489 79.455177 -423.837494 87.823959 29.857943 -95.080413 105.754893 -15.646199 175.957858 -57.696575 -1.602497 6.558951 87.037586 -5.390131 -4.678179 21.454555 0.003080 -0.000002 104.763969 8.839002 -176.274670 -59.295399 -3.347866 -4.939923 87.359875 5.050660 7.909366 21.454558 -0.003109 -0.000019 20.583629 -1.001433 -0.563722 31.169452 -1.815136 -1.375309 30.851271 -1.823275 -1.364300 7.655719 -1.067116 -0.129192 2.906675 -3.842230 0.456080 48.210644 -78.513530 130.525366 -72.917583 48.206550 -55.895618 -107.645304 -0.252469 3.104061 -17.093807 -33.098328 31.537258 78.755278 81.100751 -100.259958 -73.279447 -42.386262 55.334340 -108.781097 0.467618 -3.215890 -8.649302 28.355976 -35.043484 
361.138214 79.501701 -423.931885 88.044144 30.028216 -95.064526 105.587491 -15.834783 176.083301 -57.749290 -1.633415 6.599640 86.991946 -5.385550 -4.492346 21.454551 0.003089 0.000001 104.789336 8.799614 -175.873314 -59.154151 -3.338806 -5.045098 87.210444 5.082734 7.634423 21.454557 -0.003110 -0.000017 20.618772 -0.994233 -0.556854 31.239482 -1.802329 -1.360370 30.921298 -1.810383 -1.349439 6.942850 -1.158179 0.122684 1.668309 -3.852870 0.741877 47.323420 -78.560877 131.394617 -73.035725 48.305232 -55.958251 -107.831393 -0.219128 3.109836 -16.868353 -33.250549 31.412733 77.705491 80.977179 -101.310072 -73.216158 -42.314538 55.249079 -108.806416 0.505123 -3.219608 -8.152565 28.097301 -34.677209 
361.146790 79.519432 -424.055298 88.293862 29.987884 -95.054295 105.609457 -16.091388 176.244999 -57.889043 -1.730414 6.654566 87.008270 -5.382980 -4.292003 21.454551 0.003100 0.000001 105.000710 8.735392 -175.513158 -59.090296 -3.293768 -5.132781 87.079823 5.091134 7.314914 21.454558 -0.003107 -0.000018 20.640125 -0.994048 -0.563303 31.282283 -1.799922 -1.373280 30.964113 -1.808055 -1.362364 6.238708 -1.336011 0.397099 0.701249 -3.879997 1.034740 47.172992 -78.585063 131.541343 -72.927262 48.324077 -56.004198 -107.826298 -0.213713 3.109243 -15.992873 -33.356195 30.501227 77.043127 80.904540 -101.972013 -73.236949 -42.075857 55.136429 -108.642799 0.602784 -3.219611 -7.350736 27.798032 -34.303030 
361.144196 79.546829 -424.221405 88.471604 29.683309 -95.113000 105.979988 -16.351596 176.280871 -58.004985 -1.809696 6.713918 87.079728 -5.390351 -4.141049 21.454553 0.003104 0.000001 105.464411 8.685004 -175.354315 -59.049533 -3.135334 -5.198722 86.930468 5.075568 6.960841 21.454558 -0.003111 -0.000018 20.670365 -1.023551 -0.570225 31.343509 -1.855537 -1.395277 31.025332 -1.863807 -1.384025 5.550241 -1.334505 0.556062 -0.282301 -4.121728 1.273290 48.115292 -78.415578 130.623024 -72.535100 48.327031 -55.996179 -108.115099 -0.113019 3.114803 -12.868740 -33.428780 27.870175 77.590102 80.712359 -101.445590 -73.099041 -41.713970 55.100263 -108.466594 0.687550 -3.217459 -6.632307 27.462644 -34.190073 
